<svg width="18" height="20" viewBox="0 0 18 20" fill="none" xmlns="http://www.w3.org/2000/svg">
<path d="M13.4544 4C14.4586 4 15.2726 3.10457 15.2726 2C15.2726 0.895431 14.4586 0 13.4544 0C12.4503 0 11.6362 0.895431 11.6362 2C11.6362 3.10457 12.4503 4 13.4544 4Z" fill="currentColor"/>
<path d="M12.343 8.96897C12.5517 9.31105 12.851 9.57419 13.2004 9.72268C13.5497 9.87117 13.9321 9.8978 14.2957 9.79897L17.3103 8.96997L16.8712 7.02997L13.8566 7.85897L12.603 5.79197C12.3352 5.35053 11.9195 5.04354 11.4466 4.93797L7.95027 4.16797C7.55912 4.08162 7.15302 4.13933 6.79466 4.33217C6.4363 4.52502 6.14563 4.84229 5.96754 5.23497L4.46027 8.55097L6.08663 9.44597L7.5939 6.12897L9.38208 6.52297L4.75845 15H0.727539V17H4.75845C5.39299 17 5.99027 16.628 6.31754 16.029L8.06118 12.833L12.7603 13.867L14.4112 19.316L16.1348 18.683L14.4848 13.235C14.383 12.9005 14.2028 12.6014 13.9625 12.3679C13.7221 12.1345 13.4301 11.9748 13.1157 11.905L10.353 11.298L11.9639 8.34397L12.343 8.96897Z" fill="currentColor"/>
</svg>
