<svg width="23" height="19" viewBox="0 0 23 19" fill="none" xmlns="http://www.w3.org/2000/svg">
<path d="M17.9453 18.875C17.0568 18.875 16.1883 18.6115 15.4496 18.1179C14.7109 17.6243 14.1351 16.9227 13.7951 16.1019C13.4551 15.2811 13.3661 14.3778 13.5394 13.5064C13.7128 12.635 14.1406 11.8346 14.7689 11.2064C15.3971 10.5781 16.1975 10.1503 17.0689 9.97694C17.9403 9.80361 18.8436 9.89257 19.6644 10.2326C20.4852 10.5726 21.1868 11.1484 21.6804 11.8871C22.174 12.6258 22.4375 13.4943 22.4375 14.3828C22.4362 15.5738 21.9625 16.7157 21.1203 17.5578C20.2782 18.4 19.1363 18.8737 17.9453 18.875ZM17.9453 11.4531C17.3659 11.4531 16.7995 11.6249 16.3177 11.9469C15.8359 12.2688 15.4604 12.7263 15.2386 13.2617C15.0169 13.797 14.9589 14.3861 15.0719 14.9544C15.185 15.5227 15.464 16.0447 15.8737 16.4544C16.2834 16.8641 16.8055 17.1432 17.3738 17.2562C17.9421 17.3692 18.5311 17.3112 19.0665 17.0895C19.6018 16.8678 20.0593 16.4922 20.3813 16.0105C20.7032 15.5287 20.875 14.9623 20.875 14.3828C20.8741 13.6061 20.5651 12.8614 20.0159 12.3122C19.4667 11.763 18.722 11.454 17.9453 11.4531Z" fill="currentColor"/>
<path d="M5.05469 18.875C4.16622 18.875 3.2977 18.6115 2.55896 18.1179C1.82023 17.6243 1.24445 16.9227 0.904449 16.1019C0.564446 15.2811 0.475486 14.3778 0.648818 13.5064C0.82215 12.635 1.24999 11.8346 1.87823 11.2064C2.50648 10.5781 3.30691 10.1503 4.17831 9.97694C5.04971 9.80361 5.95294 9.89257 6.77378 10.2326C7.59461 10.5726 8.2962 11.1484 8.78981 11.8871C9.28341 12.6258 9.54688 13.4943 9.54688 14.3828C9.54558 15.5738 9.07189 16.7157 8.22972 17.5578C7.38755 18.4 6.24569 18.8737 5.05469 18.875ZM5.05469 11.4531C4.47525 11.4531 3.90883 11.6249 3.42704 11.9469C2.94526 12.2688 2.56975 12.7263 2.34801 13.2617C2.12627 13.797 2.06825 14.3861 2.1813 14.9544C2.29434 15.5227 2.57336 16.0447 2.98309 16.4544C3.39281 16.8641 3.91483 17.1432 4.48314 17.2562C5.05144 17.3692 5.6405 17.3112 6.17583 17.0895C6.71116 16.8678 7.16872 16.4922 7.49064 16.0105C7.81255 15.5287 7.98438 14.9623 7.98438 14.3828C7.98347 13.6061 7.67452 12.8614 7.12529 12.3122C6.57607 11.763 5.83141 11.454 5.05469 11.4531Z" fill="currentColor"/>
<path d="M14.625 3.25005C14.8308 3.25076 15.0347 3.21067 15.2249 3.1321C15.4151 3.05352 15.5879 2.93802 15.7332 2.79227C15.8785 2.64651 15.9934 2.47341 16.0714 2.28295C16.1494 2.09249 16.1889 1.88847 16.1875 1.68267C16.1898 1.4779 16.1512 1.27473 16.0741 1.08504C15.9969 0.895351 15.8827 0.722952 15.7381 0.577921C15.5935 0.432891 15.4215 0.318141 15.232 0.240382C15.0426 0.162622 14.8395 0.123414 14.6348 0.125049C14.4296 0.124408 14.2263 0.164188 14.0365 0.242119C13.8466 0.320049 13.674 0.434604 13.5285 0.579242C13.3829 0.72388 13.2673 0.895769 13.1882 1.0851C13.1091 1.27442 13.068 1.47748 13.0674 1.68267C13.0667 1.88786 13.1065 2.09116 13.1845 2.28098C13.2624 2.4708 13.3769 2.64341 13.5216 2.78895C13.6662 2.9345 13.8381 3.05013 14.0274 3.12924C14.2168 3.20836 14.4198 3.24941 14.625 3.25005Z" fill="currentColor"/>
<path d="M16.9468 6.37504H14.8101C14.775 6.37505 14.7406 6.36563 14.7104 6.34776C14.6803 6.32989 14.6555 6.30423 14.6387 6.27348L13.0889 3.43315C12.9797 3.22207 12.8223 3.03967 12.6295 2.90071C12.4367 2.76175 12.2139 2.67014 11.9791 2.6333C11.7444 2.59645 11.5042 2.6154 11.2781 2.68862C11.052 2.76183 10.8463 2.88725 10.6777 3.05473L7.2666 6.49223C6.98003 6.78473 6.81736 7.17652 6.8125 7.58598C6.8125 8.43559 7.42773 8.73833 7.71582 8.90922C9.10742 9.71098 10.0874 10.2974 10.625 10.6231C10.6536 10.6405 10.6772 10.6649 10.6936 10.6941C10.71 10.7233 10.7187 10.7561 10.7188 10.7896V14.1646C10.7188 14.585 11.042 14.9458 11.4624 14.9668C11.568 14.9719 11.6734 14.9555 11.7725 14.9187C11.8715 14.8818 11.962 14.8253 12.0386 14.7524C12.1151 14.6796 12.1761 14.5919 12.2178 14.4949C12.2595 14.3978 12.2811 14.2932 12.2813 14.1875V9.98833C12.2813 9.8643 12.2519 9.74205 12.1953 9.63167C12.1388 9.52129 12.0568 9.42596 11.9561 9.35356L10.1494 8.05424C10.1267 8.03802 10.1078 8.01712 10.0939 7.99297C10.0799 7.96881 10.0713 7.94195 10.0687 7.9142C10.066 7.88644 10.0693 7.85843 10.0783 7.83206C10.0874 7.80568 10.1019 7.78154 10.1211 7.76127L12.1719 5.57426C12.1929 5.55176 12.219 5.53455 12.2479 5.52404C12.2768 5.51352 12.3079 5.51001 12.3384 5.51377C12.369 5.51753 12.3982 5.52846 12.4238 5.54568C12.4493 5.5629 12.4704 5.58591 12.4854 5.61284L13.5508 7.53569C13.6185 7.65758 13.7176 7.75913 13.8378 7.82979C13.958 7.90046 14.0949 7.93766 14.2344 7.93754H16.9688C17.0746 7.93767 17.1793 7.91628 17.2767 7.87469C17.374 7.8331 17.4618 7.77217 17.5349 7.69559C17.608 7.61902 17.6647 7.5284 17.7017 7.42923C17.7387 7.33006 17.7551 7.22441 17.75 7.1187C17.7295 6.69829 17.3672 6.37504 16.9468 6.37504Z" fill="currentColor"/>
</svg>
