<svg width="31" height="32" viewBox="0 0 31 32" fill="none" xmlns="http://www.w3.org/2000/svg">
<ellipse cx="15.3192" cy="15.8487" rx="15.3192" ry="15.3561" fill="#F9EAEA"/>
<g clip-path="url(#clip0_21620_4002)">
<path d="M12.2552 10.4741C13.948 10.4741 15.3191 11.8216 15.3191 13.4839C15.3191 11.8216 16.6901 10.4741 18.3829 10.4741C20.0757 10.4741 21.4467 11.8216 21.4467 13.4839C21.4467 15.9893 18.9696 16.873 15.6193 20.861C15.5824 20.9048 15.5365 20.94 15.4846 20.9641C15.4327 20.9883 15.3762 21.0008 15.3191 21.0008C15.2619 21.0008 15.2054 20.9883 15.1535 20.9641C15.1017 20.94 15.0557 20.9048 15.0188 20.861C11.6685 16.873 9.19141 15.9893 9.19141 13.4839C9.19141 11.8216 10.5625 10.4741 12.2552 10.4741Z" fill="#F02323"/>
</g>
<defs>
<clipPath id="clip0_21620_4002">
<rect width="12.2553" height="12.2849" fill="white" transform="translate(9.19141 9.7063)"/>
</clipPath>
</defs>
</svg>
